# xmcd
# Track frame offsets:
# 150
# 18128
# 33124
# 49812
# 65925
# 81180
# 96003
# 109788
# 121490
# 141086
# 159077
# 177897
# 192225
# 208352
# 223325
# 239536
# 258548
# 278648
# 299746
# 319973
#
# Disc length: 4450 seconds
# Revision: 0
# Processed by: cddbd v1.5.2PL0 Copyright (c) Steve Scherf et al.
# Submitted via: VisiTrax 2.11.3.279 - For more info visit www.synapsa.com
#
DISCID=35116014
DTITLE=Various (1960's-2010's) Country and Country Pop and Country Rock Artist
DTITLE=s - Best Country Album (in the world . . . ever): CD2of3: *ReMastere
DTITLE=d Tracks
DYEAR=1963
DGENRE=Country
TTITLE0=Shania Twain - That Don't Impress Me Much*
TTITLE1=Carrie Underwood - Before He Cheats*
TTITLE2=Gretchen Wilson - Redneck Woman*
TTITLE3=Charlie Daniels Band The - The Devil Went Down To Georgia*
TTITLE4=Billy Ray Cyrus - Achy Breaky Heart*
TTITLE5=Brooks and Dunn - Boot Scootin' Boogie*
TTITLE6=Elvis Presley - T-R-O-U-B-L-E
TTITLE7=Johnny Cash - Ring Of Fire*
TTITLE8=Mavericks The - Dance The Night Away*
TTITLE9=Billy Swan - I Can Help*
TTITLE10=Jimmy Buffett - Margaritaville*
TTITLE11=Jake Owen - Beachin'
TTITLE12=Ward Thomas - Carry You Home*
TTITLE13=Kacey Musgraves - Follow Your Arrow*
TTITLE14=Lissie - Go Your Own Way*
TTITLE15=Bobbie Gentry - Ode To Billie Joe*
TTITLE16=Janis Joplin - Me And Bobby McGee*
TTITLE17=Lynyrd Skynyrd - Sweet Home Alabama*
TTITLE18=Steve Earle - Copperhead Road*
TTITLE19=Highwayman The - Highwayman*
EXTD=Compilation and ReMastering: UMC - Sony Music: 2019
EXTT0=
EXTT1=
EXTT2=
EXTT3=
EXTT4=
EXTT5=
EXTT6=
EXTT7=
EXTT8=
EXTT9=
EXTT10=
EXTT11=
EXTT12=
EXTT13=
EXTT14=
EXTT15=
EXTT16=
EXTT17=
EXTT18=
EXTT19=
PLAYORDER=
